
xxxxxxxxxxxxxxxxxxxxxxxxxxxxxxxxxxxxxxxxxxxxxxxxxxxxxxxxxxxxxxxxxxxxxxxxxxxxxxxx

Dune
1984 Official Lynch US Theatrical Cut

Director: David Lynch

xxxxxxxxxxxxxxxxxxxxxxxxxxxxxxxxxxxxxxxxxxxxxxxxxxxxxxxxxxxxxxxxxxxxxxxxxxxxxxxx

OFFICIAL VERSIONS INFO:
 
http://www.imdb.com/title/tt0087182/
 
http://www.imdb.com/title/tt0087182/alternateversions
 
http://en.wikipedia.org/wiki/Dune_(film)

xxxxxxxxxxxxxxxxxxxxxxxxxxxxxxxxxxxxxxxxxxxxxxxxxxxxxxxxxxxxxxxxxxxxxxxxxxxxxxxx

A WORLD BEYOND YOUR EXPERIENCE, BEYOND YOUR IMAGINATION.

The spice must flow.

xxxxxxxxxxxxxxxxxxxxxxxxxxxxxxxxxxxxxxxxxxxxxxxxxxxxxxxxxxxxxxxxxxxxxxxxxxxxxxxx

Kyle MacLachlan	 ...	Paul Atreides
Virginia Madsen	 ...	Princess Irulan
Patrick Stewart	 ...	Gurney Halleck
Sting	 	 ...	Feyd Rautha
Dean Stockwell	 ...	Doctor Wellington Yueh
Sean Young	 ...	Chani
Francesca Annis	 ...	Lady Jessica
Leonardo Cimino	 ...	The Baron's Doctor
Brad Dourif	 ...	Piter De Vries
Jose Ferrer	 ...	Padishah Emperor Shaddam IV
Linda Hunt	 ...	Shadout Mapes
Freddie Jones	 ...	Thufir Hawat
Richard Jordan	 ...	Duncan Idaho
Silvana Mangano	 ...	Reverend Mother Ramallo
Everett McGill	 ...	Stilgar
Kenneth McMillan ...	Baron Vladimir Harkonnen
Jack Nance	 ...	Nefud
Sian Phillips	 ...	Reverend Mother Gaius Helen Mohiam
Jurgen Prochnow	 ...	Duke Leto Atreides
Paul L. Smith	 ...	The Beast Rabban
Max von Sydow	 ...	Doctor Kynes
Alicia Witt	 ...	Alia

xxxxxxxxxxxxxxxxxxxxxxxxxxxxxxxxxxxxxxxxxxxxxxxxxxxxxxxxxxxxxxxxxxxxxxxxxxxxxxxx

Other versions of Dune in 272p and 480x352: 
http://thepiratebay.com/tag/Dune+272p 
http://thepiratebay.com/tag/Dune+480x352

Other releases: 
http://thepiratebay.com/user/k3nd00d

xxxxxxxxxxxxxxxxxxxxxxxxxxxxxxxxxxxxxxxxxxxxxxxxxxxxxxxxxxxxxxxxxxxxxxxxxxxxxxxx

General
Format                           : MPEG-4
Format profile                   : Base Media / Version 2
Codec ID                         : mp42
File size                        : 379 MiB
Duration                         : 2h 16mn
Overall bit rate                 : 388 Kbps

Video
ID                               : 1
Format                           : AVC
Format/Info                      : Advanced Video Codec
Format profile                   : Baseline@L1.3
Format settings, CABAC           : No
Format settings, ReFrames        : 2 frames
Codec ID                         : avc1
Codec ID/Info                    : Advanced Video Coding
Duration                         : 2h 16mn
Bit rate mode                    : Variable
Bit rate                         : 320 Kbps
Width                            : 480 pixels
Height                           : 208 pixels
Display aspect ratio             : 2.35:1
Frame rate mode                  : Variable
Frame rate                       : 23.976 fps
Minimum frame rate               : 14.985 fps
Maximum frame rate               : 91.556 fps
Color space                      : YUV
Chroma subsampling               : 4:2:0
Bit depth                        : 8 bits
Scan type                        : Progressive
Bits/(Pixel*Frame)               : 0.134
Stream size                      : 312 MiB (82%)
Writing library                  : x264 core 79

Audio
ID                               : 2
Format                           : AAC
Format/Info                      : Advanced Audio Codec
Format profile                   : LC
Codec ID                         : 40
Duration                         : 2h 16mn
Bit rate mode                    : Variable
Bit rate                         : 64.0 Kbps
Maximum bit rate                 : 90.3 Kbps
Channel(s)                       : 2 channels
Channel positions                : Front: L R
Sampling rate                    : 44.1 KHz
Compression mode                 : Lossy
Stream size                      : 62.4 MiB (16%)
Language                         : English

xxxxxxxxxxxxxxxxxxxxxxxxxxxxxxxxxxxxxxxxxxxxxxxxxxxxxxxxxxxxxxxxxxxxxxxxxxxxxxxx
